# xmcd CD database file
#
# Track frame offsets:
#	150
#	14128
#	28357
#	41826
#	53944
#	74352
#	86773
#	98769
#	112991
#	124691
#	139623
#	153441
#	167147
#	178777
#	191968
#	205521
#	217583
#	232376
#	246448
#	260625
#
# Disc length: 3622 seconds
#
# Revision: 2
# Processed by: cddbd v1.5.1PL2 Copyright (c) Steve Scherf et al.
# Submitted via: CDex 1.51
#
DISCID=2e0e2414
DTITLE=Ella Fitzgerald - Diamond Collection, Volume 1
DYEAR=1900
DGENRE=Jazz
TTITLE0=Under The Spell Of The Blues
TTITLE1=Darktown Strutters Ball
TTITLE2=(If You Can't Sing) You'll Have To Swing It
TTITLE3=Stone Cold Dead In De Market
TTITLE4=I Want To Be Happy
TTITLE5=When My Sugar Walks Down The Street
TTITLE6=If Dreams Come True
TTITLE7=Into Each Life Some Rain Must Fall
TTITLE8=Sing Me A Swing Song (And Let Me Dance)
TTITLE9=Undecided
TTITLE10=Moonray
TTITLE11=Imagination
TTITLE12=Baby Won't You Please Come Home
TTITLE13=You Won't Be Satisfied (Until You Break My Heart)
TTITLE14=It's Wonderful
TTITLE15=It's Pity To Say Goodnight
TTITLE16=Oh Lady Be Good
TTITLE17=Everybodys Wrong But Me
TTITLE18=Crying My Heart Out For You
TTITLE19=Flying Home
EXTD=
EXTT0=
EXTT1=
EXTT2=
EXTT3=
EXTT4=
EXTT5=
EXTT6=
EXTT7=
EXTT8=
EXTT9=
EXTT10=
EXTT11=
EXTT12=
EXTT13=
EXTT14=
EXTT15=
EXTT16=
EXTT17=
EXTT18=
EXTT19=
PLAYORDER=
